<?xml version="1.0" encoding="UTF-8"?>
<svg width="1337px" height="1337px" viewBox="0 0 1337 1337" version="1.1" xmlns="http://www.w3.org/2000/svg" xmlns:xlink="http://www.w3.org/1999/xlink">
    <!-- Generator: Sketch 40.3 (33839) - http://www.bohemiancoding.com/sketch -->
    <title>Group 15</title>
    <desc>Created with Sketch.</desc>
    <defs>
        <rect id="path-1" x="370" y="594" width="131" height="394"></rect>
        <mask id="mask-2" maskContentUnits="userSpaceOnUse" maskUnits="objectBoundingBox" x="0" y="0" width="131" height="394" fill="white">
            <use xlink:href="#path-1"></use>
        </mask>
    </defs>
    <g id="Page-1" stroke="none" stroke-width="1" fill="none" fill-rule="evenodd">
        <g id="Group-15">
            <circle id="Oval" fill="#FFFFFF" cx="668.5" cy="668.5" r="668.5"></circle>
            <rect id="Rectangle-6" fill="#1B1B1B" style="mix-blend-mode: hue;" x="300" y="325" width="756" height="733"></rect>
            <use id="Rectangle-7" stroke="#1B1B1B" mask="url(#mask-2)" stroke-width="10" fill="#FFFFFF" xlink:href="#path-1"></use>
            <path d="M704,651.645823 L704,593.502666 L576,593.502666 L576,987.502666 L704,987.502666 L704,747.476152 C706.857781,736.793118 722.893723,687.502666 775.5,687.502666 C825.320369,687.502666 840.558619,732.067252 844.094349,765.502666 L844,765.502666 L844,987.502666 L970,987.502666 L970,770.16286 L970.5,770.002666 C970.5,770.002666 975.719224,698.441306 947.5,651.002666 C924.01748,611.526782 871.285667,584.229762 829.5,584.002666 C746.446947,583.551291 710.254014,640.554496 704,651.645823 Z" id="Combined-Shape" stroke="#1B1B1B" stroke-width="5" fill="#FFFFFF"></path>
            <ellipse id="Oval-4" stroke="#1B1B1B" stroke-width="4" fill="#FFFFFF" cx="436" cy="473.5" rx="74" ry="68.5"></ellipse>
        </g>
    </g>
</svg>