<?xml version="1.0" encoding="UTF-8"?>
<svg width="1337px" height="1337px" viewBox="0 0 1337 1337" version="1.1" xmlns="http://www.w3.org/2000/svg" xmlns:xlink="http://www.w3.org/1999/xlink">
    <!-- Generator: Sketch 40.3 (33839) - http://www.bohemiancoding.com/sketch -->
    <title>Group 11</title>
    <desc>Created with Sketch.</desc>
    <defs>
        <path d="M107,0 L809,0 L809,899 L107,899 L107,0 Z M763,0 L809,0 L809,46 L763,46 L763,0 Z" id="path-1"></path>
        <mask id="mask-2" maskContentUnits="userSpaceOnUse" maskUnits="objectBoundingBox" x="0" y="0" width="702" height="899" fill="white">
            <use xlink:href="#path-1"></use>
        </mask>
    </defs>
    <g id="Page-1" stroke="none" stroke-width="1" fill="none" fill-rule="evenodd">
        <g id="Group-11">
            <g id="Group-7">
                <g id="Group-6-Copy">
                    <circle id="Oval" fill="#FFFFFF" cx="668.5" cy="668.5" r="668.5"></circle>
                    <g id="res-orig" transform="translate(209.000000, 201.000000)">
                        <use id="Combined-Shape" stroke="#1B1B1B" mask="url(#mask-2)" stroke-width="8" fill="#FFFFFF" xlink:href="#path-1"></use>
                        <g id="Group" transform="translate(24.000000, 276.000000)"></g>
                        <text id="EMILY-MACON" font-family="AbhayaLibre-Bold, Abhaya Libre" font-size="100" font-weight="bold" fill="#1B1B1B">
                            <tspan x="146" y="154">EMILY MACON</tspan>
                        </text>
                        <g id="Group-3" transform="translate(146.000000, 509.000000)" stroke="#1B1B1B" stroke-linecap="square">
                            <path d="M0.558035714,1 L359.381943,1" id="Line-Copy-6" stroke-width="20"></path>
                            <path d="M0.558035714,51 L623.899915,51" id="Line-Copy-7" stroke-width="10"></path>
                            <path d="M0.558035714,96 L623.899915,96" id="Line-Copy-8" stroke-width="10"></path>
                        </g>
                        <g id="Group-4" transform="translate(146.000000, 230.000000)" stroke-linecap="square">
                            <path d="M0.558035714,1 L359.381943,1" id="Line" stroke="#000000" stroke-width="20"></path>
                            <path d="M0.558035714,51 L623.899915,51" id="Line-Copy-2" stroke="#000000" stroke-width="10"></path>
                            <path d="M0.558035714,96 L623.899915,96" id="Line-Copy-3" stroke="#000000" stroke-width="10"></path>
                            <path d="M0.558035714,185 L623.899915,185" id="Line-Copy-4" stroke="#1B1B1B" stroke-width="10"></path>
                            <path d="M0.558035714,140 L623.899915,140" id="Line-Copy-5" stroke="#000000" stroke-width="10"></path>
                        </g>
                        <g id="Group-2" transform="translate(146.000000, 698.000000)" stroke="#1B1B1B" stroke-linecap="square">
                            <path d="M0.558035714,1 L359.381943,1" id="Line-Copy-11" stroke-width="20"></path>
                            <path d="M0.558035714,51 L623.899915,51" id="Line-Copy-12" stroke-width="10"></path>
                            <path d="M0.558035714,96 L623.899915,96" id="Line-Copy-13" stroke-width="10"></path>
                            <path d="M0.558035714,140 L623.899915,140" id="Line-Copy-15" stroke-width="10"></path>
                        </g>
                    </g>
                </g>
            </g>
        </g>
    </g>
</svg>